<svg version="1.1" viewBox="0.0 0.0 480.0 288.0" fill="none" stroke="none" stroke-linecap="square" stroke-miterlimit="10" xmlns:xlink="http://www.w3.org/1999/xlink" xmlns="http://www.w3.org/2000/svg"><clipPath id="p.0"><path d="m0 0l480.0 0l0 288.0l-480.0 0l0 -288.0z" clip-rule="nonzero"/></clipPath><g clip-path="url(#p.0)"><path fill="#000000" fill-opacity="0.0" d="m0 0l480.0 0l0 288.0l-480.0 0z" fill-rule="evenodd"/><path fill="#000000" fill-opacity="0.0" d="m2.7270346 -49.273205l480.0 0l0 288.0l-480.0 0z" fill-rule="evenodd"/><path fill="#00ff00" d="m34.730423 166.72679l0 -118.0l18.0 0l0 118.0l-18.0 0zm36.0 0l0 -118.0l18.0 0l0 118.0l-18.0 0zm24.0 0l0 -118.0l6.0 0l0 118.0l-6.0 0zm12.0 0l0 -118.0l6.0 0l0 118.0l-6.0 0zm12.0 0l0 -118.0l6.0 0l0 118.0l-6.0 0z" fill-rule="nonzero"/><path fill="#00ff00" d="m130.73045 91.72679l0 -78.65625l4.0 0l0 78.65625l-4.0 0zm8.0 0l0 -78.65625l12.0 0l0 78.65625l-12.0 0zm24.0 0l0 -78.65625l4.0 0l0 78.65625l-4.0 0zm8.0 0l0 -78.65625l4.0 0l0 78.65625l-4.0 0zm8.0 0l0 -78.65625l12.0 0l0 78.65625l-12.0 0z" fill-rule="nonzero"/><path fill="#00ff00" d="m194.72702 166.72679l0 -118.0l6.0 0l0 118.0l-6.0 0zm12.0 0l0 -118.0l18.0 0l0 118.0l-18.0 0zm24.0 0l0 -118.0l18.0 0l0 118.0l-18.0 0zm24.0 0l0 -118.0l6.0 0l0 118.0l-6.0 0zm24.0 0l0 -118.0l6.0 0l0 118.0l-6.0 0z" fill-rule="nonzero"/><path fill="#00ff00" d="m290.72702 91.72679l0 -78.65625l4.0 0l0 78.65625l-4.0 0zm8.0 0l0 -78.65625l12.0 0l0 78.65625l-12.0 0zm24.0 0l0 -78.65625l4.0 0l0 78.65625l-4.0 0zm8.0 0l0 -78.65625l4.0 0l0 78.65625l-4.0 0zm8.0 0l0 -78.65625l12.0 0l0 78.65625l-12.0 0z" fill-rule="nonzero"/><path fill="#00ff00" d="m354.7236 166.72679l0 -118.0l18.0 0l0 118.0l-18.0 0zm24.0 0l0 -118.0l18.0 0l0 118.0l-18.0 0zm24.0 0l0 -118.0l6.0 0l0 118.0l-6.0 0zm24.0 0l0 -118.0l6.0 0l0 118.0l-6.0 0zm12.0 0l0 -118.0l6.0 0l0 118.0l-6.0 0z" fill-rule="nonzero"/><path fill="#000000" fill-opacity="0.0" d="m7.7488513 130.6156l154.83464 0l0 180.97638l-154.83464 0z" fill-rule="evenodd"/><path fill="#00ff00" d="m56.230213 267.6156l-10.796875 -86.65625l23.468746 0l1.0625 42.921875q0 3.734375 0 7.46875q0 3.734375 0 7.46875q0 3.734375 0 7.46875l0.53125 0q0.53125 -3.734375 1.265625 -7.46875q0.734375 -3.734375 1.53125 -7.53125q0.8125 -3.796875 1.46875 -7.40625l4.8125 -21.0625l13.328125 0l4.390625 21.0625q0.671875 3.46875 1.40625 7.203125q0.734375 3.734375 1.53125 7.53125q0.796875 3.796875 1.328125 7.671875l0.546875 0q0 -3.875 0 -7.671875q0 -3.796875 0 -7.453125q0 -3.671875 0 -7.28125l1.0625 -42.921875l21.859375 0l-10.0 86.65625l-23.734375 0l-3.859375 -23.734375q-0.671875 -4.265625 -1.265625 -8.65625q-0.59375 -4.40625 -0.734375 -8.28125l-0.40625 0q-0.265625 3.875 -0.796875 8.28125q-0.53125 4.390625 -1.203125 8.65625l-3.59375 23.734375l-23.203121 0z" fill-rule="nonzero"/><path fill="#000000" fill-opacity="0.0" d="m162.5835 130.6156l154.83466 0l0 180.97638l-154.83466 0z" fill-rule="evenodd"/><path fill="#00ff00" d="m208.53362 267.6156l0 -86.65625l32.53125 0q9.328125 0 17.187485 2.671875q7.875 2.65625 12.671875 8.921875q4.8125 6.265625 4.8125 17.203125q0 10.53125 -4.875 17.265625q-4.859375 6.734375 -12.796875 9.9375q-7.9374847 3.1875 -16.999985 3.1875l-9.59375 0l0 27.46875l-22.9375 0zm22.9375 -45.59375l8.53125 0q6.796875 0 10.0625 -3.265625q3.265625 -3.265625 3.265625 -9.0q0 -5.875 -3.46875 -8.265625q-3.46875 -2.40625 -9.859375 -2.40625l-8.53125 0l0 22.9375z" fill-rule="nonzero"/><path fill="#000000" fill-opacity="0.0" d="m127.19995 80.793846l73.102356 0l0 180.97638l-73.102356 0z" fill-rule="evenodd"/><path fill="#00ff00" d="m141.71362 167.79384l0 -8.703125q7.546875 -6.140625 13.40625 -11.375q5.875 -5.25 9.25 -9.6875q3.375 -4.453125 3.375 -8.265625q0 -3.8281174 -2.21875 -5.6406174q-2.21875 -1.828125 -5.953125 -1.828125q-3.109375 0 -5.640625 1.640625q-2.53125 1.640625 -4.84375 3.6875l-8.09375 -8.171875q4.625 -4.71875 9.328125 -6.890625q4.71875 -2.171875 11.390625 -2.171875q6.03125 0 10.65625 2.265625q4.625 2.265625 7.25 6.4375q2.625 4.171875 2.625 9.781242q0 4.53125 -2.765625 9.25q-2.75 4.703125 -7.015625 9.1875q-4.265625 4.484375 -8.890625 8.390625q2.3125 -0.265625 5.203125 -0.484375q2.890625 -0.21875 4.921875 -0.21875l11.390625 0l0 12.796875l-43.375 0z" fill-rule="nonzero"/><path fill="#000000" fill-opacity="0.0" d="m317.41815 130.6156l154.83463 0l0 180.97638l-154.83463 0z" fill-rule="evenodd"/><path fill="#00ff00" d="m402.57138 269.20935q-8.140625 0 -15.546875 -2.71875q-7.390625 -2.734375 -13.125 -8.265625q-5.734375 -5.546875 -9.0625 -13.875q-3.328125 -8.328125 -3.328125 -19.40625q0 -14.53125 5.71875 -24.71875q5.734375 -10.203125 15.328125 -15.53125q9.609375 -5.34375 21.34375 -5.34375q8.40625 0 15.265625 3.40625q6.875 3.390625 11.40625 7.796875l-12.53125 14.125q-2.9375 -2.65625 -6.34375 -4.125q-3.390625 -1.46875 -7.796875 -1.46875q-5.328125 0 -9.59375 3.0q-4.265625 3.0 -6.8125 8.609375q-2.53125 5.59375 -2.53125 13.453125q0 8.140625 2.53125 13.8125q2.546875 5.65625 7.078125 8.59375q4.53125 2.9375 10.390625 2.9375q4.265625 0 7.796875 -2.0q3.546875 -2.0 6.34375 -4.9375l12.53125 13.859375q-5.328125 6.40625 -12.796875 9.609375q-7.46875 3.1875 -16.265625 3.1875z" fill-rule="nonzero"/><path fill="#000000" fill-opacity="0.0" d="m282.03723 80.793846l73.102356 0l0 180.97638l-73.102356 0z" fill-rule="evenodd"/><path fill="#00ff00" d="m296.5509 167.79384l0 -8.703125q7.546875 -6.140625 13.40625 -11.375q5.875 -5.25 9.25 -9.6875q3.375 -4.453125 3.375 -8.265625q0 -3.8281174 -2.21875 -5.6406174q-2.21875 -1.828125 -5.953125 -1.828125q-3.109375 0 -5.640625 1.640625q-2.53125 1.640625 -4.84375 3.6875l-8.09375 -8.171875q4.625 -4.71875 9.328125 -6.890625q4.71875 -2.171875 11.390625 -2.171875q6.03125 0 10.65625 2.265625q4.625 2.265625 7.25 6.4375q2.625 4.171875 2.625 9.781242q0 4.53125 -2.765625 9.25q-2.75 4.703125 -7.015625 9.1875q-4.265625 4.484375 -8.890625 8.390625q2.3125 -0.265625 5.203125 -0.484375q2.890625 -0.21875 4.921875 -0.21875l11.390625 0l0 12.796875l-43.375 0z" fill-rule="nonzero"/></g></svg>